# AST/ASF file generated using VICON BodyLanguage
# -----------------------------------------------
:version 1.10
:name VICON
:units
  mass 1.0
  length 0.45
  angle deg
:documentation
   .ast/.asf automatically generated from VICON data using
   VICON BodyBuilder and BodyLanguage model FoxedUp or BRILLIANT.MOD
:root
   order TX TY TZ RX RY RZ
   axis XYZ
   position 0 0 0  
   orientation 0 0 0 
:bonedata
  begin
     id 1 
     name lhipjoint
     direction 0.62366 -0.717238 0.310833 
     length 2.53602 
     axis 0 0 0  XYZ
  end
  begin
     id 2 
     name lfemur
     direction 0.34202 -0.939693 0  
     length 7.40817  
     axis 0 0 20  XYZ
    dof rx ry rz
    limits (-160.0 20.0)
           (-70.0 70.0)
           (-60.0 70.0)
  end
  begin
     id 3 
     name ltibia
     direction 0.34202 -0.939693 0   
     length 7.7045   
     axis 0 0 20   XYZ
    dof rx
    limits (-10.0 170.0)
  end
  begin
     id 4 
     name lfoot
     direction 0.0673888 -0.185149 0.980397   
     length 2.09456   
     axis -90 7.62852e-016 20   XYZ
    dof rx rz
    limits (-45.0 90.0)
           (-70.0 20.0)
  end
  begin
     id 5 
     name ltoes
     direction 1.53575e-011 -4.21994e-011 1   
     length 1.05543   
     axis -90 7.62852e-016 20   XYZ
    dof rx
    limits (-90.0 20.0)
  end
  begin
     id 6 
     name rhipjoint
     direction -0.489018 -0.800347 0.346851   
     length 2.27268  
     axis 0 0 0  XYZ 
  end
  begin
     id 7 
     name rfemur
     direction -0.34202 -0.939693 0   
     length 7.55487   
     axis 0 0 -20   XYZ
    dof rx ry rz
    limits (-160.0 20.0)
           (-70.0 70.0)
           (-70.0 60.0)
  end
  begin
     id 8 
     name rtibia
     direction -0.34202 -0.939693 0   
     length 7.78969   
     axis 0 0 -20   XYZ
    dof rx
    limits (-10.0 170.0)
 end
 begin
     id 9 
     name rfoot
     direction -0.0859318 -0.236096 0.967923   
     length 2.19143  
     axis -90 -7.62852e-016 -20   XYZ
    dof rx rz
    limits (-45.0 90.0)
           (-20.0 70.0)
  end
  begin
     id 10 
     name rtoes
     direction -1.53538e-011 -4.21989e-011 1   
     length 1.09845   
     axis -90 -7.62852e-016 -20   XYZ
    dof rx
    limits (-90.0 20.0)
  end
  begin
     id 11 
     name lowerback
     direction -0.00762546 0.998978 -0.0445553   
     length 1.98161   
     axis 0 0 0   XYZ
    dof rx ry rz
    limits (-20.0 45.0)
           (-30.0 30.0)
           (-30.0 30.0)
  end
  begin
     id 12 
     name upperback
     direction 0.0422361 0.998867 -0.0219156   
     length 1.97558   
     axis 0 0 0   XYZ
    dof rx ry rz
    limits (-20.0 45.0)
           (-30.0 30.0)
           (-30.0 30.0)
  end
  begin
     id 13 
     name thorax
     direction 0.0442465 0.999021 7.47603e-005   
     length 1.97799   
     axis 0 0 0   XYZ
    dof rx ry rz
    limits (-20.0 45.0)
           (-30.0 30.0)
           (-30.0 30.0)
  end
  begin
     id 14 
     name lowerneck
     direction 0.00312169 0.984641 0.174564   
     length 1.78995   
     axis 0 0 0   XYZ
    dof rx ry rz
    limits (-20.0 45.0)
           (-30.0 30.0)
           (-30.0 30.0)
  end
  begin
     id 15 
     name upperneck
     direction -0.0383028 0.985255 -0.166749   
     length 1.83053   
     axis 0 0 0   XYZ
    dof rx ry rz
    limits (-20.0 45.0)
           (-30.0 30.0)
           (-30.0 30.0)
  end
  begin
     id 16
     name head
     direction -0.0129546 0.997059 -0.0755386  
     length 1.84088  
     axis 0 0 0   XYZ
    dof rx ry rz
    limits (-20.0 45.0)
           (-30.0 30.0)
           (-30.0 30.0)
  end
  begin
     id 17 
     name lclavicle
     direction 0.912857 0.370519 -0.171488  
     length 3.51279  
     axis 0 0 0   XYZ
    dof ry rz
    limits (-20.0 10.0)
           (0.0 20.0)
  end
  begin
     id 18 
     name lhumerus
     direction 1 -4.48962e-011 3.64361e-027   
     length 4.95663   
     axis 180 -30 -90   XYZ
    dof rx ry rz
    limits (-60.0 90.0)
           (-90.0 90.0)
           (-90.0 90.0)
  end
  begin
     id 19
     name lradius
     direction 1 -4.48974e-011 5.97202e-027   
     length 3.38177   
     axis 180 -30 -90   XYZ
    dof rx
    limits (-10.0 170.0)
  end
  begin
     id 20
     name lwrist
     direction 1 -4.4896e-011 9.83288e-027   
     length 1.69088   
     axis -9.31221e-015 90 90   XYZ
    dof ry
    limits (-180.0 0.0)
 end
  begin
     id 21 
     name lhand
     direction 1 -4.4902e-011 1.96551e-026   
     length 0.662909   
     axis -1.25475e-014 90 90   XYZ
    dof rx rz
    limits (-90.0 90.0)
           (-45.0 45.0)
  end
  begin
     id 22 
     name lfingers
     direction 1 -4.48971e-011 3.93277e-026   
     length 0.534454   
     axis -2.50945e-014 90 90   XYZ
    dof rx
    limits (0.0 90.0)
  end
  begin
     id 23
     name lthumb
     direction 0.707107 -6.34933e-011 0.707107   
     length 0.767373   
     axis -90 45 -4.80359e-014   XYZ
    dof rx rz
    limits (-45.0 45.0)
           (-45.0 45.0)
  end
  begin
     id 24 
     name rclavicle
     direction -0.900919 0.395364 -0.178976   
     length 3.40627  
     axis 0 0 0   XYZ 
    dof ry rz
    limits (-10.0 20.0)
           (-20.0 0.0)
  end
  begin
     id 25 
     name rhumerus
     direction -1 -4.48969e-011 1.03875e-027  
     length 5.08365   
     axis 180 30 90   XYZ
    dof rx ry rz
    limits (-90.0 60.0)
           (-90.0 90.0)
           (-90.0 90.0)
  end
  begin
     id 26 
     name rradius
     direction -1 -4.48951e-011 5.02733e-027   
     length 3.35984   
     axis 180 30 90   XYZ
    dof rx
    limits (-10.0 170.0)
  end
  begin
     id 27 
     name rwrist
     direction -1 -4.49011e-011 9.82828e-027   
     length 1.67992   
     axis -9.31221e-015 -90 -90   XYZ
    dof ry
    limits (-180.0 0.0)
  end
  begin
     id 28
     name rhand
     direction -1 -4.48894e-011 1.96774e-026   
     length 0.820764   
     axis -1.25475e-014 -90 -90   XYZ
    dof rx rz
    limits (-90.0 90.0)
           (-45.0 45.0)
  end
  begin
     id 29
     name rfingers
     direction -1 -4.49095e-011 3.92833e-026   
     length 0.661721   
     axis -2.50945e-014 -90 -90   XYZ
    dof rx
    limits (0.0 90.0)
  end
  begin
     id 30
     name rthumb
     direction -0.707107 -6.34881e-011 0.707107   
     length 0.950103   
     axis -90 -45 4.80359e-014   XYZ
    dof rx rz
    limits (-45.0 45.0)
           (-45.0 45.0)
  end
:hierarchy
  begin
    root lhipjoint rhipjoint lowerback
    lhipjoint lfemur
    lfemur ltibia
    ltibia lfoot
    lfoot ltoes
    rhipjoint rfemur
    rfemur rtibia
    rtibia rfoot
    rfoot rtoes
    lowerback upperback
    upperback thorax
    thorax lowerneck lclavicle rclavicle
    lowerneck upperneck
    upperneck head
    lclavicle lhumerus
    lhumerus lradius
    lradius lwrist
    lwrist lhand lthumb
    lhand lfingers
    rclavicle rhumerus
    rhumerus rradius
    rradius rwrist
    rwrist rhand rthumb
    rhand rfingers
  end

#!OML:ASF I:\golf\golf\golf 2\Subject 1\2002-09-07\Subject1.ASF
:FULLY-SPECIFIED
:DEGREES
124
root -5.76049 17.8864 1.65805 -78.2033 86.2977 -95.5299
lowerback 4.65923 1.75535 -1.30953
upperback 3.19547 2.43549 4.99237
thorax 0.412524 1.22064 5.80293
lowerneck -17.0734 -1.6784 1.78757
upperneck 40.9527 1.46856 -6.06712
head 18.3006 0.617298 -2.69894
rclavicle -4.41302e-014 -6.20208e-014
rhumerus -4.74421 -2.39889 -101.128
rradius 21.1134
rwrist -33.1031
rhand -14.4875 -6.37587
rfingers 7.12502
rthumb 11.659 -36.0315
lclavicle -4.41302e-014 -6.20208e-014
lhumerus -11.3132 -44.38 111.096
lradius 27.8541
lwrist 45.3728
lhand -13.3864 68.5103
lfingers 7.12502
lthumb -167.279 81.8972
rfemur -28.6085 -0.146213 12.6602
rtibia 27.8083
rfoot -11.5601 -9.41009
rtoes 22.9118
lfemur -30.7218 5.3123 -9.714
ltibia 30.2342
lfoot -11.4695 0.445254
ltoes -23.8536
125
root -5.76005 17.8856 1.65654 -78.7765 86.2793 -96.109
lowerback 4.65177 1.74905 -1.25943
upperback 3.19694 2.42915 4.99423
thorax 0.420717 1.21812 5.77683
lowerneck -17.0605 -1.67536 1.82509
upperneck 40.9265 1.46854 -6.09821
head 18.2817 0.6184 -2.71924
rclavicle -5.96354e-015 -7.15625e-015
rhumerus -4.71598 -2.64005 -101.157
rradius 21.0867
rwrist -32.9261
rhand -14.2872 -6.27518
rfingers 7.12502
rthumb 11.8522 -35.9198
lclavicle -5.96354e-015 -7.15625e-015
lhumerus -11.322 -44.5264 111.087
lradius 27.8633
lwrist 45.243
lhand -13.4125 68.584
lfingers 7.12502
lthumb -167.304 81.8219
rfemur -28.6232 -0.226962 12.6946
rtibia 27.8292
rfoot -11.4505 -9.45943
rtoes 22.1067
lfemur -30.7461 5.35909 -9.71781
ltibia 30.236
lfoot -11.4754 0.387547
ltoes -24.1122
126
root -5.75902 17.8861 1.65563 -79.0176 86.245 -96.3439
lowerback 4.64237 1.75154 -1.21065
upperback 3.20674 2.43466 5.00394
thorax 0.436955 1.2214 5.75946
lowerneck -17.0334 -1.6667 1.84164
upperneck 40.8745 1.48412 -6.13427
head 18.245 0.62115 -2.73365
rclavicle -3.57812e-015 -2.06736e-014
rhumerus -4.67906 -2.92715 -101.176
rradius 21.052
rwrist -32.6464
rhand -14.1062 -6.14386
rfingers 7.12502
rthumb 12.0267 -35.7783
lclavicle -3.57812e-015 -2.06736e-014
lhumerus -11.3016 -44.6264 111.084
lradius 27.8339
lwrist 44.9732
lhand -13.15 68.4684
lfingers 7.12502
lthumb -167.051 81.9534
rfemur -28.6237 -0.246911 12.737
rtibia 27.857
rfoot -11.4019 -9.45606
rtoes 21.7748
lfemur -30.7465 5.40613 -9.69222
ltibia 30.2437
lfoot -11.4882 0.325867
ltoes -24.0388
127
root -5.75917 17.8872 1.65409 -79.1738 86.2307 -96.5178
lowerback 4.62567 1.75683 -1.19035
upperback 3.20594 2.44279 5.01694
thorax 0.444806 1.22576 5.7617
lowerneck -16.9991 -1.6592 1.82646
upperneck 40.8481 1.50746 -6.15025
head 18.2221 0.626198 -2.73199
rclavicle 1.43125e-014 5.48646e-014
rhumerus -4.67915 -2.80721 -101.128
rradius 21.087
rwrist -32.7883
rhand -14.2448 -6.00006
rfingers 7.12502
rthumb 11.893 -35.6423
lclavicle 1.43125e-014 5.48646e-014
lhumerus -11.2438 -44.7437 111.074
lradius 27.7415
lwrist 44.6091
lhand -12.5479 68.3043
lfingers 7.12502
lthumb -166.471 82.1551
rfemur -28.6511 -0.291644 12.7599
rtibia 27.8764
rfoot -11.4557 -9.40066
rtoes 22.0127
lfemur -30.7795 5.41511 -9.68153
ltibia 30.2563
lfoot -11.5073 0.286449
ltoes -23.7705
128
root -5.76007 17.8873 1.65292 -79.398 86.2306 -96.7645
lowerback 4.62227 1.76313 -1.16994
upperback 3.19722 2.45178 5.00894
thorax 0.437792 1.23072 5.74102
lowerneck -16.9591 -1.66181 1.84753
upperneck 40.8223 1.50285 -6.17097
head 18.1958 0.625141 -2.74462
rclavicle -2.46493e-014 7.95139e-016
rhumerus -4.72826 -2.42394 -101.105
rradius 21.2481
rwrist -33.4217
rhand -14.6137 -6.02913
rfingers 7.12502
rthumb 11.5373 -35.6916
lclavicle -2.46493e-014 7.95139e-016
lhumerus -11.2254 -44.989 111.043
lradius 27.6164
lwrist 44.1318
lhand -11.9297 68.0541
lfingers 7.12502
lthumb -165.875 82.446
rfemur -28.6842 -0.329172 12.7676
rtibia 27.8909
rfoot -11.513 -9.29926
rtoes 22.6703
lfemur -30.8256 5.40847 -9.68459
ltibia 30.2736
lfoot -11.5141 0.24611
ltoes -23.2403
129
root -5.76063 17.8867 1.65348 -78.9422 86.2208 -96.3162
lowerback 4.62141 1.77084 -1.16305
upperback 3.20264 2.46164 4.99262
thorax 0.443716 1.2355 5.71951
lowerneck -16.9557 -1.65766 1.90242
upperneck 40.7986 1.49963 -6.20799
head 18.1809 0.626345 -2.7719
rclavicle 2.82274e-014 5.32743e-014
rhumerus -4.82882 -1.81862 -101.141
rradius 21.5535
rwrist -34.418
rhand -15.1858 -6.26474
rfingers 7.12502
rthumb 10.9856 -35.9573
lclavicle 2.82274e-014 5.32743e-014
lhumerus -11.2013 -45.3043 110.958
lradius 27.492
lwrist 43.5541
lhand -11.2303 67.8051
lfingers 7.12502
lthumb -165.201 82.7432
rfemur -28.7161 -0.257125 12.765
rtibia 27.9183
rfoot -11.5832 -9.16855
rtoes 23.8368
lfemur -30.842 5.45747 -9.68154
ltibia 30.2973
lfoot -11.4935 0.224895
ltoes -22.9278
130
root -5.76201 17.8861 1.65414 -77.7446 86.2179 -95.1312
lowerback 4.6124 1.77463 -1.20163
upperback 3.21365 2.46427 4.98097
thorax 0.458835 1.23571 5.72973
lowerneck -16.9935 -1.64099 1.92044
upperneck 40.8148 1.52878 -6.23082
head 18.2035 0.636865 -2.782
rclavicle 9.93923e-015 7.79236e-014
rhumerus -4.9195 -1.26398 -101.195
rradius 21.8069
rwrist -35.1744
rhand -15.5066 -6.42556
rfingers 7.12502
rthumb 10.6761 -36.1343
lclavicle 9.93923e-015 7.79236e-014
lhumerus -11.0577 -45.5185 110.782
lradius 27.2959
lwrist 42.7314
lhand -10.2288 67.4472
lfingers 7.12502
lthumb -164.237 83.1747
rfemur -28.7842 -0.163961 12.7495
rtibia 27.9762
rfoot -11.6291 -9.11069
rtoes 24.8274
lfemur -30.8474 5.54546 -9.68886
ltibia 30.3191
lfoot -11.4975 0.200152
ltoes -22.7569
131
root -5.76405 17.8842 1.65349 -76.4791 86.2089 -93.84
lowerback 4.6611 1.77299 -1.23623
upperback 3.23125 2.46111 4.97758
thorax 0.449033 1.23366 5.7449
lowerneck -17.0355 -1.6172 1.89901
upperneck 40.8513 1.57994 -6.23454
head 18.2411 0.65327 -2.77244
rclavicle 8.74653e-015 7.15625e-015
rhumerus -4.99847 -0.858583 -101.247
rradius 22.0002
rwrist -35.7387
rhand -15.6377 -6.52034
rfingers 7.12502
rthumb 10.5496 -36.2356
lclavicle 8.74653e-015 7.15625e-015
lhumerus -10.8688 -45.6886 110.571
lradius 27.0863
lwrist 41.7452
lhand -9.09839 66.8713
lfingers 7.12502
lthumb -163.148 83.8399
rfemur -28.8333 -0.100606 12.7497
rtibia 28.0656
rfoot -11.5287 -9.14548
rtoes 24.4148
lfemur -30.8114 5.64144 -9.69265
ltibia 30.3433
lfoot -11.5234 0.145901
ltoes -22.1528
132
root -5.76531 17.8807 1.65173 -75.5301 86.2129 -92.8659
lowerback 4.70565 1.77258 -1.23171
upperback 3.24399 2.46063 4.95869
thorax 0.438337 1.23351 5.72122
lowerneck -17.0521 -1.60462 1.8745
upperneck 40.8642 1.59957 -6.21176
head 18.2546 0.659859 -2.75434
rclavicle -1.27222e-014 -2.38542e-014
rhumerus -5.10794 -0.393308 -101.304
rradius 22.2578
rwrist -36.5882
rhand -16.0788 -6.58039
rfingers 7.12502
rthumb 10.1241 -36.3168
lclavicle -1.27222e-014 -2.38542e-014
lhumerus -10.7652 -46.0688 110.42
lradius 26.9357
lwrist 40.9032
lhand -8.21558 66.7175
lfingers 7.12502
lthumb -162.299 84.0682
rfemur -28.9052 -0.00343637 12.7215
rtibia 28.2009
rfoot -11.5071 -9.22641
rtoes 24.0046
lfemur -30.7936 5.72514 -9.72409
ltibia 30.3688
lfoot -11.5171 0.148386
ltoes -22.1272
133
root -5.76639 17.878 1.65178 -73.624 86.2291 -90.949
lowerback 4.72888 1.79624 -1.27309
upperback 3.24921 2.48954 4.92952
thorax 0.427214 1.24728 5.71194
lowerneck -17.0125 -1.59895 1.85941
upperneck 40.8215 1.5983 -6.19264
head 18.2179 0.658193 -2.74041
rclavicle -1.19271e-015 3.73715e-014
rhumerus -5.28868 0.322645 -101.336
rradius 22.6186
rwrist -37.7508
rhand -16.5966 -6.57693
rfingers 7.12502
rthumb 9.62453 -36.3371
lclavicle -1.19271e-015 3.73715e-014
lhumerus -10.6759 -46.5449 110.277
lradius 26.7349
lwrist 40.1908
lhand -7.49096 66.7253
lfingers 7.12502
lthumb -161.601 84.1248
rfemur -29.0297 0.141785 12.6739
rtibia 28.3859
rfoot -11.5992 -9.32338
rtoes 23.789
lfemur -30.7808 5.8729 -9.78641
ltibia 30.398
lfoot -11.5458 0.16391
ltoes -22.5649
134
root -5.76903 17.8749 1.65465 -70.5425 86.2625 -87.8096
lowerback 4.82851 1.87421 -1.39109
upperback 3.26212 2.58869 4.89778
thorax 0.37081 1.296 5.73754
lowerneck -16.9832 -1.63115 1.7841
upperneck 40.7865 1.55391 -6.15167
head 18.185 0.633446 -2.71387
rclavicle -1.98785e-015 -1.90833e-014
rhumerus -5.49127 0.833403 -101.277
rradius 22.9905
rwrist -38.6344
rhand -16.8035 -6.61034
rfingers 7.12502
rthumb 9.42494 -36.3796
lclavicle -1.98785e-015 -1.90833e-014
lhumerus -10.601 -47.1645 110.155
lradius 26.467
lwrist 39.4036
lhand -5.78454 66.2737
lfingers 7.12502
lthumb -159.961 84.7397
rfemur -29.1242 0.31963 12.5999
rtibia 28.5856
rfoot -11.5865 -9.44846
rtoes 22.6387
lfemur -30.7053 6.09784 -9.87925
ltibia 30.4514
lfoot -11.6195 0.131539
ltoes -22.8528
135
root -5.77425 17.8702 1.6578 -68.2805 86.2753 -85.5028
lowerback 4.9637 1.96492 -1.4589
upperback 3.25886 2.7078 4.87343
thorax 0.277195 1.35653 5.73911
lowerneck -17.0232 -1.70942 1.60146
upperneck 40.8165 1.45449 -6.03235
head 18.2048 0.581844 -2.64512
rclavicle 1.47101e-014 5.00937e-014
rhumerus -5.6362 0.746709 -101.204
rradius 23.2436
rwrist -38.9081
rhand -16.7764 -6.66945
rfingers 7.12502
rthumb 9.45112 -36.4375
lclavicle 1.47101e-014 5.00937e-014
lhumerus -10.6148 -48.1994 110.085
lradius 26.3527
lwrist 38.9087
lhand -4.0929 65.9803
lfingers 7.12502
lthumb -158.335 85.2118
rfemur -29.2301 0.469701 12.5508
rtibia 28.7698
rfoot -11.4824 -9.57367
rtoes 21.4153
lfemur -30.6958 6.32208 -9.94535
ltibia 30.547
lfoot -11.6618 0.0276798
ltoes -22.8569
136
root -5.77992 17.8673 1.66119 -66.4165 86.1385 -83.652
lowerback 5.04118 2.03222 -1.34828
upperback 3.238 2.80238 4.83802
thorax 0.208477 1.40686 5.62972
lowerneck -17.0307 -1.74321 1.48185
upperneck 40.8274 1.38702 -5.89162
head 18.2064 0.554935 -2.57044
rclavicle 1.78906e-014 3.73715e-014
rhumerus -5.80863 0.571823 -101.276
rradius 23.5296
rwrist -39.211
rhand -16.8315 -6.63293
rfingers 7.12502
rthumb 9.39797 -36.4034
lclavicle 1.78906e-014 3.73715e-014
lhumerus -10.6275 -49.4368 109.91
lradius 26.407
lwrist 39.0276
lhand -4.1157 66.2257
lfingers 7.12502
lthumb -158.357 84.9639
rfemur -29.4046 0.630273 12.6727
rtibia 28.9359
rfoot -11.3208 -9.6552
rtoes 20.0705
lfemur -30.7558 6.55172 -9.83584
ltibia 30.6749
lfoot -11.696 -0.06296
ltoes -22.4872
137
root -5.78425 17.8657 1.66279 -63.3699 85.9405 -80.6176
lowerback 5.06012 2.11462 -1.15238
upperback 3.23813 2.91784 4.75013
thorax 0.198881 1.4671 5.41805
lowerneck -16.9624 -1.73787 1.47371
upperneck 40.7837 1.34691 -5.78787
head 18.1572 0.550648 -2.52497
rclavicle -2.46493e-014 -2.06736e-014
rhumerus -6.02136 0.51492 -101.431
rradius 23.9331
rwrist -39.7839
rhand -16.9494 -6.62951
rfingers 7.12502
rthumb 9.28413 -36.4051
lclavicle -2.46493e-014 -2.06736e-014
lhumerus -10.5573 -50.5278 109.633
lradius 26.3164
lwrist 39.0986
lhand -4.10184 66.2221
lfingers 7.12502
lthumb -158.344 84.9691
rfemur -29.5918 0.768741 12.84
rtibia 29.0909
rfoot -11.2031 -9.6567
rtoes 18.6913
lfemur -30.765 6.74271 -9.67329
ltibia 30.8162
lfoot -11.7654 -0.0148067
ltoes -21.9218
138
root -5.78843 17.8618 1.66292 -59.2037 85.7574 -76.4359
lowerback 5.08164 2.22513 -1.08139
upperback 3.25557 3.06616 4.69317
thorax 0.196029 1.54197 5.30879
lowerneck -16.9078 -1.74182 1.45218
upperneck 40.7407 1.32995 -5.75665
head 18.1153 0.543922 -2.50709
rclavicle -1.86858e-014 -1.35174e-014
rhumerus -6.25745 0.575563 -101.499
rradius 24.4048
rwrist -40.421
rhand -17.0794 -6.92498
rfingers 7.12502
rthumb 9.15869 -36.7061
lclavicle -1.86858e-014 -1.35174e-014
lhumerus -10.4931 -51.5178 109.44
lradius 26.1487
lwrist 38.909
lhand -3.21852 65.9231
lfingers 7.12502
lthumb -157.496 85.3682
rfemur -29.7682 0.955298 12.9218
rtibia 29.2437
rfoot -8.75637 -10.3845
rtoes -6.99134
lfemur -30.7243 6.9344 -9.57844
ltibia 30.959
lfoot -11.8561 0.135766
ltoes -21.7133
